<?xml version="1.0" encoding="UTF-8"?>
<svg id="Layer_1" xmlns="http://www.w3.org/2000/svg" xmlns:xlink="http://www.w3.org/1999/xlink" version="1.1" viewBox="0 0 96 96">
  <!-- Generator: Adobe Illustrator 30.6.0, SVG Export Plug-In . SVG Version: 2.1.4 Build 109)  -->
  <defs>
    <style>
      .st0 {
        mask: url(#mask);
      }

      .st1 {
        fill: #f6f3ec;
      }

      .st2 {
        stroke: #000;
        stroke-linecap: round;
        stroke-width: 4.05px;
      }

      .st3 {
        fill: #3d468c;
      }

      .st4 {
        fill: #ece6dc;
      }

      .st5 {
        fill: #fff;
      }
    </style>
    <mask id="mask" x="22.8" y="19.2" width="50.4" height="57.6" maskUnits="userSpaceOnUse">
      <g id="cl-tpur">
        <rect class="st5" x="22.8" y="19.2" width="50.4" height="57.6" rx="8.1" ry="8.1"/>
        <g>
          <path class="st2" d="M30.9,32.7h18"/>
          <path class="st2" d="M30.9,41.7h18"/>
          <path class="st2" d="M30.9,50.7h18"/>
          <path class="st2" d="M30.9,59.7h18"/>
        </g>
        <path d="M60.15,28.2h0c1.74,0,3.15,1.41,3.15,3.15v33.3c0,1.74-1.41,3.15-3.15,3.15h0c-1.74,0-3.15-1.41-3.15-3.15V31.35c0-1.74,1.41-3.15,3.15-3.15Z"/>
      </g>
    </mask>
  </defs>
  <rect class="st3" width="96" height="96" rx="22" ry="22"/>
  <g class="st0">
    <rect class="st4" x="22.8" y="19.2" width="50.4" height="57.6" rx="8.1" ry="8.1"/>
  </g>
  <circle class="st1" cx="60.15" cy="24.6" r="3.06"/>
</svg>